<svg version="1.1" viewBox="0.0 0.0 480.0 480.0" fill="none" stroke="none" stroke-linecap="square" stroke-miterlimit="10" xmlns:xlink="http://www.w3.org/1999/xlink" xmlns="http://www.w3.org/2000/svg"><clipPath id="p.0"><path d="m0 0l480.0 0l0 480.0l-480.0 0l0 -480.0z" clip-rule="nonzero"/></clipPath><g clip-path="url(#p.0)"><path fill="#000000" fill-opacity="0.0" d="m0 0l480.0 0l0 480.0l-480.0 0z" fill-rule="evenodd"/><path fill="#ffffff" d="m42.614174 83.51181l0 0c0 -6.7781677 5.494793 -12.2729645 12.2729645 -12.2729645l370.2257 0c3.255005 0 6.3766785 1.2930374 8.678314 3.5946655c2.3016052 2.301628 3.5946655 5.4233093 3.5946655 8.678299l0 49.091858c0 6.778183 -5.494812 12.27298 -12.27298 12.27298l-370.2257 0l0 0c-6.7781715 0 -12.2729645 -5.4947968 -12.2729645 -12.27298z" fill-rule="evenodd"/><path fill="#ffffff" d="m42.614174 215.45407l0 0c0 -6.7781677 5.494793 -12.2729645 12.2729645 -12.2729645l370.2257 0c3.255005 0 6.3766785 1.2930298 8.678314 3.5946655c2.3016052 2.3016205 3.5946655 5.4233093 3.5946655 8.678299l0 49.091858c0 6.7781677 -5.494812 12.27298 -12.27298 12.27298l-370.2257 0l0 0c-6.7781715 0 -12.2729645 -5.494812 -12.2729645 -12.27298z" fill-rule="evenodd"/><path fill="#ffffff" d="m42.614174 347.39633l0 0c0 -6.7781677 5.494793 -12.27298 12.2729645 -12.27298l370.2257 0c3.255005 0 6.3766785 1.2930603 8.678314 3.5946655c2.3016052 2.3016357 3.5946655 5.4233093 3.5946655 8.678314l0 49.091858c0 6.7781677 -5.494812 12.27298 -12.27298 12.27298l-370.2257 0l0 0c-6.7781715 0 -12.2729645 -5.494812 -12.2729645 -12.27298z" fill-rule="evenodd"/></g></svg>