<svg version="1.1" viewBox="0.0 0.0 720.0 720.0" fill="none" stroke="none" stroke-linecap="square" stroke-miterlimit="10" xmlns:xlink="http://www.w3.org/1999/xlink" xmlns="http://www.w3.org/2000/svg"><clipPath id="p.0"><path d="m0 0l720.0 0l0 720.0l-720.0 0l0 -720.0z" clip-rule="nonzero"/></clipPath><g clip-path="url(#p.0)"><path fill="#000000" fill-opacity="0.0" d="m0 0l720.0 0l0 720.0l-720.0 0z" fill-rule="evenodd"/><path fill="#ffffff" d="m256.99738 34.336643l0 0c0 -18.963604 15.373047 -34.336643 34.33664 -34.336643l137.34247 0l0 0c9.106628 0 17.840302 3.6176004 24.279663 10.056971c6.4393616 6.439369 10.056976 15.173029 10.056976 24.279673l0 651.32666c0 18.963623 -15.373047 34.33667 -34.33664 34.33667l-137.34247 0c-18.963593 0 -34.33664 -15.373047 -34.33664 -34.33667z" fill-rule="evenodd"/><path fill="#ffffff" d="m685.6633 256.99213l0 0c18.963623 0 34.33667 15.373047 34.33667 34.33664l0 137.34247l0 0c0 9.106628 -3.6176147 17.840302 -10.056946 24.279663c-6.439392 6.4393616 -15.173035 10.056976 -24.279724 10.056976l-651.32666 0c-18.963604 0 -34.336643 -15.373047 -34.336643 -34.33664l0 -137.34247c0 -18.963593 15.373039 -34.33664 34.336643 -34.33664z" fill-rule="evenodd"/></g></svg>